<svg width="304" height="361" viewBox="0 0 304 361" fill="none" xmlns="http://www.w3.org/2000/svg">
<path d="M3.12875 278.543C2.30298 277.95 1.61634 277.149 1.12503 276.206C0.633716 275.264 0.351679 274.206 0.302002 273.12V77.4135C0.353628 76.3281 0.63648 75.2714 1.12762 74.3291C1.61876 73.3869 2.30435 72.5856 3.12875 71.9904L66.5092 31.6288C67.3287 31.0645 68.272 30.7569 69.2379 30.739C70.2038 30.7212 71.1559 30.9937 71.9921 31.5274C72.8283 32.061 73.5171 32.8357 73.9845 33.7684C74.4519 34.701 74.6803 35.7564 74.6453 36.8214V49.8911C74.6453 51.8841 75.8743 52.6976 77.4844 51.6943L156.793 1.19156C157.612 0.627984 158.554 0.320549 159.518 0.302147C160.483 0.283745 161.434 0.555067 162.27 1.08708C163.106 1.6191 163.795 2.39179 164.263 3.32247C164.732 4.25314 164.962 5.30678 164.929 6.37063V307.191L106.477 344.394L3.12875 278.543Z" fill="#263238"/>
<path d="M162.274 1.09674C161.418 0.636119 160.475 0.405803 159.522 0.424655C158.569 0.443507 157.634 0.710994 156.793 1.20521L77.4844 51.708C75.9113 52.7113 74.6454 51.8978 74.6454 49.9048V36.8351C74.6804 35.7701 74.4519 34.7147 73.9845 33.782C73.5171 32.8494 72.8284 32.0747 71.9922 31.541C71.156 31.0073 70.2039 30.7348 69.238 30.7527C68.272 30.7706 67.3288 31.0781 66.5093 31.6424L3.12879 72.004C2.29585 72.5857 1.60736 73.3872 1.12549 74.3359L37.4799 97.4927L164.929 16.295V6.38428C164.894 5.33485 164.636 4.30923 164.174 3.39058C163.713 2.47192 163.062 1.68608 162.274 1.09674Z" fill="#455A64"/>
<path d="M162.102 4.58106L77.4843 58.4733C75.9112 59.4766 74.6453 58.6631 74.6453 56.6701V36.835C74.6453 34.8421 73.4163 34.0286 71.8185 35.0319L8.43807 75.3934C7.61299 75.9878 6.92687 76.7889 6.43565 77.7313C5.94442 78.6737 5.66198 79.7309 5.61133 80.8165V269.826C5.66139 270.913 5.94488 271.972 6.43847 272.915C6.93206 273.857 7.62161 274.657 8.45036 275.249L111.823 341.085L164.929 307.272V6.38425C164.929 4.39126 163.663 3.59135 162.102 4.58106Z" fill="#37474F"/>
<path d="M6.44702 272.836C6.92148 273.79 7.61156 274.594 8.45032 275.168L111.823 341.004L164.929 307.191V171.898L6.44702 272.836Z" fill="#263238"/>
<path d="M19.278 315.922L18.5037 315.434C17.8435 314.961 17.2936 314.322 16.8986 313.571C16.5036 312.82 16.2745 311.976 16.23 311.109V127.469C16.2716 126.601 16.4994 125.756 16.8947 125.004C17.29 124.252 17.8414 123.615 18.5037 123.144L189.214 14.4103C189.917 14.0162 190.694 13.8108 191.482 13.8108C192.27 13.8108 193.047 14.0162 193.749 14.4103L194.524 14.912C195.186 15.3829 195.737 16.0205 196.133 16.7724C196.528 17.5243 196.756 18.3689 196.797 19.2369V202.837C196.753 203.704 196.524 204.547 196.129 205.299C195.734 206.05 195.184 206.688 194.524 207.161L23.813 315.922C23.1105 316.316 22.3336 316.522 21.5455 316.522C20.7574 316.522 19.9804 316.316 19.278 315.922Z" fill="#F5F5F5"/>
<path d="M26.8487 131.306L16.8937 124.961C16.4877 125.709 16.2595 126.557 16.23 127.428V311.069C16.2745 311.936 16.5036 312.779 16.8986 313.531C17.2936 314.282 17.8435 314.92 18.5037 315.394L19.278 315.882C19.9804 316.276 20.7574 316.481 21.5455 316.481C22.3336 316.481 23.1105 316.276 23.813 315.882L26.8487 313.943V131.306Z" fill="#E0E0E0"/>
<path d="M21.5518 314.444V130.804C21.594 129.938 21.8208 129.095 22.2137 128.343C22.6066 127.592 23.1546 126.953 23.8131 126.479L194.524 17.7456C195.753 16.9593 196.797 17.5965 196.797 19.1963V202.837C196.753 203.704 196.524 204.547 196.129 205.299C195.734 206.05 195.184 206.688 194.524 207.162L23.8131 315.922C22.5595 316.681 21.5518 316.044 21.5518 314.444Z" fill="#EBEBEB"/>
<path d="M34.9971 132.892L183.34 38.4212C184.901 37.418 186.166 38.2314 186.166 40.2244V181.822C186.117 182.908 185.835 183.965 185.343 184.908C184.852 185.851 184.165 186.651 183.34 187.245L34.9971 281.702C33.4363 282.706 32.1704 281.892 32.1704 279.899V138.315C32.222 137.23 32.5049 136.173 32.996 135.231C33.4872 134.288 34.1727 133.487 34.9971 132.892Z" fill="white"/>
<path d="M59.516 125.828C68.7582 119.944 76.2429 124.717 76.2429 136.485C76.2429 148.253 68.7582 162.556 59.516 168.441C50.2738 174.325 42.7891 169.566 42.7891 157.798C42.7891 146.03 50.2738 131.712 59.516 125.828Z" fill="#FFB900"/>
<path d="M75.014 168.508C75.5814 167.342 76.3909 166.34 77.3764 165.584C78.3618 164.829 79.4954 164.341 80.6843 164.162C81.8732 163.982 83.0839 164.115 84.2173 164.55C85.3507 164.985 86.3748 165.709 87.2059 166.664L106.477 188.804L143.102 89.6833C143.639 88.2299 144.535 86.9719 145.689 86.0523C146.842 85.1328 148.206 84.5884 149.625 84.4811C151.045 84.3737 152.463 84.7078 153.72 85.4452C154.976 86.1827 156.019 87.294 156.731 88.6529L186.142 144.836V181.822C186.092 182.908 185.81 183.965 185.319 184.908C184.828 185.851 184.141 186.652 183.315 187.245L34.9971 281.702C33.4363 282.706 32.1704 281.892 32.1704 279.899V256.444L75.014 168.508Z" fill="#FFB900"/>
<path d="M51.171 336.259L50.3844 335.758C49.7259 335.283 49.1779 334.645 48.785 333.893C48.3921 333.142 48.1653 332.299 48.123 331.433V147.724C48.1653 146.858 48.3921 146.015 48.785 145.264C49.1779 144.512 49.7259 143.874 50.3844 143.4L221.107 34.6796C221.806 34.2802 222.582 34.0718 223.369 34.0718C224.156 34.0718 224.931 34.2802 225.63 34.6796L226.417 35.1677C227.075 35.6417 227.623 36.2804 228.016 37.0319C228.409 37.7833 228.636 38.6264 228.678 39.4926V223.133C228.643 224.001 228.419 224.847 228.025 225.6C227.632 226.352 227.08 226.99 226.417 227.458L55.6692 336.259C54.9735 336.654 54.2025 336.86 53.4201 336.86C52.6378 336.86 51.8667 336.654 51.171 336.259Z" fill="#F5F5F5"/>
<path d="M58.7172 151.616L48.7622 145.271C48.3577 146.014 48.1295 146.858 48.0985 147.724V331.365C48.1407 332.231 48.3675 333.074 48.7604 333.826C49.1533 334.577 49.7013 335.216 50.3599 335.69L51.1465 336.191C51.8453 336.591 52.6208 336.799 53.4079 336.799C54.1949 336.799 54.9704 336.591 55.6693 336.191L58.7172 334.253V151.616Z" fill="#E0E0E0"/>
<path d="M53.4078 334.754V151.114C53.451 150.248 53.6782 149.405 54.071 148.654C54.4639 147.903 55.0113 147.264 55.6692 146.789L226.392 38.0554C227.621 37.2555 228.654 37.9062 228.654 39.4925V223.133C228.618 224.001 228.394 224.847 228.001 225.599C227.607 226.352 227.056 226.989 226.392 227.458L55.6692 336.259C54.4279 336.991 53.4078 336.34 53.4078 334.754Z" fill="#EBEBEB"/>
<path d="M66.8656 153.229L215.208 58.7449C216.769 57.7552 218.035 58.5686 218.035 60.5481V202.119C217.984 203.204 217.702 204.261 217.211 205.204C216.719 206.146 216.033 206.947 215.208 207.542L66.8656 302.026C65.2925 303.016 64.0266 302.216 64.0266 300.223V158.652C64.0777 157.565 64.3616 156.507 64.8551 155.564C65.3486 154.621 66.0376 153.821 66.8656 153.229Z" fill="white"/>
<path d="M91.3845 146.138C100.614 140.254 108.111 145.026 108.111 156.794C108.111 168.562 100.614 182.866 91.3845 188.75C82.1546 194.634 74.6576 189.862 74.6576 178.093C74.6576 166.325 82.1423 152.022 91.3845 146.138Z" fill="#11B5E4"/>
<path d="M106.882 188.818C107.448 187.652 108.257 186.65 109.241 185.894C110.225 185.139 111.358 184.651 112.546 184.471C113.734 184.291 114.944 184.425 116.077 184.86C117.209 185.295 118.232 186.019 119.062 186.974L138.431 209.114L175.044 109.993C175.58 108.536 176.476 107.275 177.631 106.353C178.785 105.431 180.151 104.885 181.573 104.777C182.995 104.67 184.416 105.005 185.673 105.745C186.931 106.485 187.975 107.6 188.686 108.963L218.084 165.146V202.118C218.033 203.204 217.751 204.261 217.26 205.204C216.768 206.146 216.082 206.947 215.257 207.542L66.9147 302.026C65.3416 303.016 64.0757 302.216 64.0757 300.223V276.768L106.882 188.818Z" fill="#11B5E4"/>
<path d="M83.0026 356.473L82.2283 355.985C81.5697 355.511 81.0218 354.872 80.6288 354.121C80.2359 353.369 80.0091 352.526 79.9669 351.66V168.02C80.0086 167.152 80.2364 166.307 80.6317 165.555C81.0269 164.803 81.5784 164.166 82.2406 163.695L252.951 54.9611C253.654 54.567 254.431 54.3616 255.219 54.3616C256.007 54.3616 256.784 54.567 257.486 54.9611L258.261 55.4627C258.923 55.9337 259.474 56.5713 259.87 57.3232C260.265 58.0751 260.493 58.9197 260.534 59.7877V243.428C260.49 244.295 260.261 245.139 259.866 245.89C259.471 246.641 258.921 247.28 258.261 247.753L87.55 356.473C86.8459 356.869 86.0667 357.076 85.2763 357.076C84.4858 357.076 83.7067 356.869 83.0026 356.473Z" fill="#F5F5F5"/>
<path d="M90.5858 171.898L80.6676 165.553C80.2616 166.301 80.0334 167.15 80.0039 168.021V351.661C80.0461 352.527 80.2729 353.37 80.6658 354.122C81.0587 354.873 81.6067 355.512 82.2653 355.986L83.0396 356.474C83.742 356.868 84.519 357.074 85.3071 357.074C86.0952 357.074 86.8722 356.868 87.5746 356.474L90.6226 354.535L90.5858 171.898Z" fill="#E0E0E0"/>
<path d="M85.2764 355.037V171.396C85.3186 170.53 85.5454 169.687 85.9383 168.936C86.3312 168.184 86.8792 167.546 87.5378 167.072L258.248 58.3245C259.477 57.5381 260.522 58.1754 260.522 59.7752V243.429C260.478 244.296 260.248 245.14 259.853 245.891C259.458 246.642 258.909 247.281 258.248 247.754L87.5378 356.474C86.2842 357.274 85.2764 356.596 85.2764 355.037Z" fill="#EBEBEB"/>
<path d="M98.7218 173.471L247.064 79.0001C248.625 77.9968 249.891 78.8103 249.891 80.8033V222.374C249.84 223.459 249.558 224.517 249.067 225.459C248.575 226.401 247.889 227.202 247.064 227.797L98.7218 322.295C97.1609 323.298 95.895 322.484 95.895 320.491V178.88C95.9485 177.797 96.2323 176.743 96.7233 175.804C97.2144 174.864 97.899 174.065 98.7218 173.471Z" fill="white"/>
<path d="M123.241 166.42C132.483 160.536 139.968 165.309 139.968 177.077C139.968 188.845 132.483 203.149 123.241 209.033C113.998 214.917 106.477 210.171 106.477 198.39C106.477 186.608 113.998 172.305 123.241 166.42Z" fill="#F03E3D"/>
<path d="M138.739 209.1C139.306 207.934 140.115 206.932 141.101 206.176C142.086 205.421 143.22 204.933 144.409 204.754C145.598 204.574 146.808 204.707 147.942 205.142C149.075 205.577 150.099 206.301 150.93 207.256L170.238 229.396L206.863 130.275C207.401 128.822 208.297 127.564 209.45 126.644C210.603 125.725 211.967 125.18 213.387 125.073C214.806 124.966 216.225 125.3 217.481 126.037C218.737 126.775 219.781 127.886 220.493 129.245L249.903 185.428V222.373C249.848 223.46 249.563 224.516 249.07 225.458C248.577 226.4 247.89 227.201 247.064 227.797L98.7218 322.294C97.1609 323.298 95.895 322.484 95.895 320.491V297.036L138.739 209.1Z" fill="#F03E3D"/>
<path d="M111.823 341.004L127.751 330.863V351.159L111.823 341.004Z" fill="#263238"/>
<path d="M127.751 199.176V347.553C127.751 349.546 126.522 350.346 124.924 349.356L111.823 341.004L106.477 344.394L130.197 359.497C131.074 359.992 132.045 360.25 133.03 360.25C134.015 360.25 134.986 359.992 135.863 359.497L300.17 254.912C300.997 254.319 301.685 253.518 302.178 252.576C302.671 251.633 302.956 250.576 303.009 249.489V94.3339C303.041 93.2685 302.811 92.2135 302.342 91.2815C301.873 90.3496 301.183 89.5757 300.346 89.0425C299.51 88.5093 298.557 88.2368 297.591 88.2542C296.625 88.2716 295.681 88.5782 294.861 89.1412L130.59 193.767C129.764 194.357 129.076 195.156 128.582 196.096C128.089 197.036 127.804 198.091 127.751 199.176Z" fill="#263238"/>
<path d="M138.431 202.335L303.12 97.4928V94.3339C303.152 93.2685 302.921 92.2135 302.452 91.2815C301.983 90.3496 301.294 89.5757 300.457 89.0425C299.62 88.5093 298.668 88.2368 297.702 88.2542C296.736 88.2716 295.792 88.5782 294.971 89.1412L130.59 193.767C129.751 194.341 129.061 195.144 128.587 196.099L138.431 202.335Z" fill="#455A64"/>
<path d="M300.17 92.5301L135.9 197.156C135.073 197.749 134.385 198.55 133.892 199.492C133.398 200.435 133.114 201.492 133.061 202.579V357.693C133.061 359.686 134.29 360.5 135.9 359.497L300.17 254.912C300.997 254.318 301.685 253.518 302.178 252.575C302.671 251.633 302.956 250.575 303.009 249.489V94.3333C303.009 92.3403 301.731 91.5269 300.17 92.5301Z" fill="#37474F"/>
<path d="M176.801 293.24C176.487 293.245 176.177 293.156 175.904 292.983C175.577 292.745 175.314 292.414 175.143 292.025C174.972 291.636 174.9 291.203 174.933 290.773V215.364C174.977 214.38 175.232 213.421 175.679 212.567C176.126 211.714 176.751 210.99 177.502 210.456L257.953 159.222C258.265 158.951 258.642 158.789 259.038 158.758C259.433 158.727 259.828 158.827 260.171 159.046C260.514 159.265 260.789 159.593 260.962 159.987C261.134 160.381 261.195 160.823 261.137 161.255V236.664C261.093 237.648 260.838 238.607 260.391 239.461C259.944 240.314 259.319 241.038 258.568 241.572L178.116 292.874C177.714 293.12 177.261 293.246 176.801 293.24ZM259.269 160.143C259.018 160.156 258.775 160.245 258.568 160.401L178.116 211.622C177.552 212.039 177.083 212.593 176.744 213.242C176.405 213.891 176.206 214.617 176.162 215.364V290.773C176.14 290.964 176.161 291.158 176.223 291.337C176.285 291.517 176.387 291.677 176.519 291.803C176.683 291.869 176.859 291.887 177.031 291.856C177.203 291.826 177.365 291.747 177.502 291.627L257.953 240.392C258.518 239.979 258.988 239.428 259.327 238.781C259.666 238.134 259.865 237.409 259.908 236.664V161.255C259.931 161.064 259.911 160.87 259.848 160.69C259.786 160.51 259.684 160.35 259.551 160.225C259.466 160.17 259.368 160.141 259.269 160.143Z" fill="#FAFAFA"/>
<path d="M189.767 228.298C189.066 228.306 188.375 228.11 187.764 227.729C187.005 227.154 186.399 226.366 186.01 225.445C185.621 224.525 185.463 223.506 185.552 222.495C185.683 219.891 186.368 217.357 187.551 215.099C188.734 212.84 190.381 210.92 192.361 209.493C193.079 208.849 193.959 208.461 194.882 208.381C195.806 208.302 196.729 208.534 197.53 209.048C198.331 209.562 198.971 210.332 199.365 211.257C199.758 212.182 199.888 213.217 199.735 214.225C199.606 216.83 198.923 219.365 197.74 221.624C196.557 223.883 194.908 225.803 192.926 227.227C191.973 227.875 190.886 228.244 189.767 228.298ZM195.568 209.778C194.648 209.823 193.755 210.132 192.975 210.673C191.182 211.974 189.691 213.722 188.624 215.775C187.556 217.829 186.942 220.131 186.83 222.495C186.667 223.271 186.735 224.084 187.022 224.814C187.31 225.544 187.803 226.153 188.428 226.551C189.053 226.949 189.777 227.114 190.494 227.024C191.211 226.933 191.883 226.591 192.41 226.048C194.202 224.746 195.692 222.998 196.76 220.944C197.827 218.891 198.442 216.589 198.555 214.225C198.639 213.452 198.536 212.668 198.255 211.953C197.975 211.238 197.527 210.619 196.957 210.158C196.535 209.892 196.054 209.761 195.568 209.778Z" fill="#FAFAFA"/>
<path d="M175.548 287.573C175.459 287.552 175.375 287.51 175.302 287.451C175.23 287.411 175.167 287.355 175.115 287.288C175.062 287.22 175.023 287.141 174.999 287.057C174.975 286.972 174.967 286.883 174.974 286.795C174.982 286.706 175.006 286.621 175.044 286.542L198.862 234.955C199.221 234.175 199.74 233.498 200.379 232.979C201.018 232.461 201.758 232.115 202.54 231.97C203.322 231.825 204.124 231.885 204.881 232.144C205.639 232.403 206.33 232.855 206.9 233.464L230.448 258.464C230.505 258.526 230.551 258.6 230.582 258.681C230.613 258.763 230.629 258.85 230.629 258.939C230.629 259.027 230.613 259.115 230.582 259.196C230.551 259.278 230.505 259.351 230.448 259.413C230.391 259.477 230.323 259.527 230.248 259.562C230.173 259.596 230.093 259.614 230.012 259.614C229.931 259.614 229.85 259.596 229.775 259.562C229.701 259.527 229.633 259.477 229.576 259.413L206.028 234.481C205.595 234.023 205.072 233.684 204.499 233.489C203.926 233.294 203.321 233.25 202.73 233.359C202.139 233.468 201.579 233.729 201.096 234.119C200.612 234.509 200.218 235.018 199.944 235.606L176.125 287.207C176.07 287.322 175.987 287.417 175.884 287.482C175.782 287.546 175.666 287.578 175.548 287.573Z" fill="#FAFAFA"/>
<path d="M218.035 246.981C217.954 247 217.87 247 217.789 246.981C217.642 246.909 217.526 246.777 217.466 246.612C217.406 246.447 217.408 246.263 217.469 246.1L235.905 199.081C236.234 198.227 236.757 197.48 237.423 196.912C238.089 196.344 238.876 195.975 239.708 195.839C240.541 195.703 241.391 195.805 242.178 196.135C242.964 196.465 243.661 197.013 244.201 197.725L260.964 220.082C261.017 220.149 261.057 220.227 261.082 220.312C261.107 220.396 261.116 220.485 261.109 220.574C261.102 220.662 261.079 220.748 261.042 220.827C261.004 220.905 260.953 220.975 260.891 221.031C260.778 221.128 260.638 221.18 260.495 221.177C260.352 221.175 260.214 221.119 260.104 221.018L243.34 198.661C242.938 198.123 242.418 197.708 241.829 197.456C241.24 197.203 240.602 197.123 239.976 197.221C239.351 197.319 238.759 197.592 238.257 198.015C237.754 198.439 237.359 198.997 237.109 199.637L218.674 246.642C218.612 246.764 218.518 246.863 218.403 246.923C218.289 246.984 218.16 247.004 218.035 246.981Z" fill="#FAFAFA"/>
<path d="M278.367 126.926C274.57 126.926 272.026 124.418 272.026 120.69L272.357 97.1806C272.357 90.7678 272.357 81.0333 278.847 76.8439C280.187 75.9046 281.733 75.3806 283.32 75.3271C284.908 75.2735 286.479 75.6924 287.87 76.5396C289.26 77.3869 290.418 78.6314 291.222 80.1425C292.026 81.6536 292.447 83.3756 292.44 85.1278C292.44 87.0123 292.378 89.3171 292.28 91.988C292.274 92.2563 292.219 92.5205 292.118 92.7649C292.018 93.0094 291.874 93.2291 291.695 93.4112C291.516 93.5932 291.306 93.7338 291.078 93.8247C290.849 93.9156 290.605 93.9549 290.363 93.9403C290.12 93.9281 289.883 93.8634 289.663 93.7498C289.444 93.6361 289.247 93.4759 289.084 93.2782C288.92 93.0805 288.794 92.8492 288.712 92.5975C288.63 92.3459 288.594 92.0789 288.605 91.8117C288.691 89.2493 288.753 86.9309 288.753 85.1278C288.761 84.0888 288.511 83.0672 288.03 82.1736C287.55 81.28 286.857 80.5485 286.026 80.0584C285.196 79.5682 284.259 79.338 283.319 79.3928C282.378 79.4475 281.469 79.7851 280.69 80.369C276.401 83.0805 276.045 89.8594 276.045 97.1535L275.713 120.69C275.713 122.452 277.151 122.832 278.367 122.832C280.373 122.779 282.281 121.869 283.689 120.293C285.097 118.716 285.895 116.598 285.914 114.385L285.778 105.098C285.778 104.559 285.973 104.042 286.318 103.66C286.664 103.279 287.133 103.065 287.622 103.065C288.111 103.065 288.58 103.279 288.925 103.66C289.271 104.042 289.465 104.559 289.465 105.098L289.601 114.399C289.61 117.701 288.434 120.874 286.329 123.221C284.223 125.569 281.361 126.901 278.367 126.926Z" fill="#BA68C8"/>
</svg>
